<?xml version="1.0" encoding="UTF-8"?>
<!-- Generator: Adobe Illustrator 26.3.1, SVG Export Plug-In . SVG Version: 6.00 Build 0)  -->
<svg version="1.1" id="Layer_1" xmlns="http://www.w3.org/2000/svg" xmlns:xlink="http://www.w3.org/1999/xlink" x="0px" y="0px" viewBox="0 0 1091.5 400" style="enable-background:new 0 0 1091.5 400;" xml:space="preserve">
<style type="text/css">
	.st0{fill:#1D2445;}
</style>
<g>
	<path class="st0" d="M-0.3,317.9V16.7h222.2v53.6H65.1v74.6h140.1V198H65.1v119.9H-0.3z"/>
	<path class="st0" d="M258.8,53.1V0.4h61v52.7H258.8z M258.8,317.9v-231h61v231H258.8z"/>
	<path class="st0" d="M367.2,317.9v-231h50.5l4.8,31.6h3.1c5.3-7.6,11.6-14.2,19.1-19.8c7.5-5.6,15.9-9.8,25.2-12.7   c9.4-2.9,19.6-4.4,30.7-4.4c15.2,0,28.5,2.8,40,8.3c11.4,5.6,20.3,14.3,26.6,26.3c6.3,12,9.4,27.7,9.4,47v154.6h-61V173   c0-7.3-0.9-13.5-2.6-18.7c-1.8-5.1-4.3-9.4-7.7-12.7c-3.4-3.4-7.5-5.8-12.5-7.2c-5-1.5-10.5-2.2-16.7-2.2c-9.1,0-17.3,2.2-24.6,6.6   c-7.3,4.4-13,10.4-17.1,18c-4.1,7.6-6.1,16.4-6.1,26.3v134.8H367.2z"/>
	<path class="st0" d="M704.4,323.2c-19,0-35.5-4.3-49.4-12.9c-13.9-8.6-24.7-21.9-32.3-39.7c-7.6-17.9-11.4-40.7-11.4-68.5   c0-27.8,3.9-50.6,11.6-68.3c7.8-17.7,18.4-30.8,32.1-39.3c13.6-8.5,29.3-12.7,47.2-12.7c9.9,0,19.2,1.1,27.9,3.3   c8.6,2.2,16.2,5.6,22.8,10.3c6.6,4.7,12.2,10.4,16.9,17.1h2.6V0.4h61v317.5h-50.1l-4.8-31.2h-3.1c-7.6,12.3-17.6,21.4-29.9,27.4   C733.4,320.2,719.6,323.2,704.4,323.2z M723.7,273.1c11.4,0,20.7-2.6,27.9-7.9c7.2-5.3,12.5-12.9,16-22.8   c3.5-9.9,5.3-21.8,5.3-35.6v-7.9c0-10.2-1-19.6-2.9-28.1c-1.9-8.5-4.9-15.6-9-21.3c-4.1-5.7-9.2-10.1-15.4-13.2   c-6.1-3.1-13.5-4.6-22-4.6c-12.3,0-22.1,2.4-29.4,7.2c-7.3,4.8-12.6,12.1-15.8,22c-3.2,9.8-4.8,22-4.8,36.7v10.1   c0,14.6,1.6,26.8,4.8,36.4c3.2,9.7,8.5,16.9,15.8,21.7C701.6,270.7,711.4,273.1,723.7,273.1z"/>
	<path class="st0" d="M914.3,400.4c-10.8,0-19.8-0.8-27-2.4c-7.2-1.6-11.8-2.7-13.8-3.3v-41.3h26.8c7.3,0,13.9-1.7,19.8-5.1   c5.9-3.4,11-7.8,15.4-13.2c4.4-5.4,7.6-11.2,9.7-17.3l-90.4-231h64.5l39.5,106.7c1.8,5,3.7,11.2,5.9,18.7   c2.2,7.5,4.5,15.2,6.8,23.3c2.3,8.1,4.2,15.1,5.7,21.3h2.2c1.2-4.1,2.5-8.9,4-14.5c1.5-5.6,3-11.3,4.6-17.1   c1.6-5.9,3.2-11.5,4.8-16.9c1.6-5.4,3-10.2,4.2-14.3l32.9-107.1h61.5l-78.6,220c-4.4,12.9-9.4,24.9-15.1,36.2   c-5.7,11.3-12.4,21.2-20,29.9c-7.6,8.6-16.6,15.4-27,20.2C940.1,398,928,400.4,914.3,400.4z"/>
</g>
</svg>