<svg width="62" height="63" viewBox="0 0 62 63" fill="none" xmlns="http://www.w3.org/2000/svg">
<path d="M15.5 44.4163H10.3333C8.9066 44.4163 7.75 43.2598 7.75 41.833L7.75 21.1663C7.75 19.7396 8.9066 18.583 10.3333 18.583L51.6667 18.583C53.0934 18.583 54.25 19.7396 54.25 21.1663V41.833C54.25 43.2597 53.0934 44.4163 51.6667 44.4163H46.5" stroke="#2A9DCE" stroke-width="3" stroke-linecap="round" stroke-linejoin="round"/>
<path d="M18.0833 54.75L43.9167 54.75C45.3434 54.75 46.5 53.5934 46.5 52.1667V41.8333C46.5 40.4066 45.3434 39.25 43.9167 39.25L18.0833 39.25C16.6566 39.25 15.5 40.4066 15.5 41.8333L15.5 52.1667C15.5 53.5934 16.6566 54.75 18.0833 54.75Z" stroke="#2A9DCE" stroke-width="3" stroke-linecap="round" stroke-linejoin="round"/>
<path d="M25.833 28.917H36.1663" stroke="#2A9DCE" stroke-width="3" stroke-linecap="round" stroke-linejoin="round"/>
<path d="M18.0833 18.5833L43.9167 18.5833C45.3434 18.5833 46.5 17.4267 46.5 16V10.8333C46.5 9.4066 45.3434 8.25 43.9167 8.25L18.0833 8.25C16.6566 8.25 15.5 9.4066 15.5 10.8333L15.5 16C15.5 17.4267 16.6566 18.5833 18.0833 18.5833Z" stroke="#2A9DCE" stroke-width="3" stroke-linecap="round" stroke-linejoin="round"/>
</svg>
